<svg xmlns="http://www.w3.org/2000/svg" data-name="Layer 1" viewBox="0 0 64 80" x="0px" y="0px"><title>Run</title><path d="M58.14,10.86a7,7,0,1,0-7,7A7,7,0,0,0,58.14,10.86Zm-12,0a5,5,0,1,1,5,5A5,5,0,0,1,46.14,10.86Z"/><path d="M48.33,36.6A3,3,0,0,0,51,37.1l8.84-2.51a3,3,0,0,0-1.57-5.85L53.14,30V24.88a6,6,0,0,0-3.21-5.31l-7-3.68a9,9,0,0,0-4.18-1h-8.1A5,5,0,0,0,27.42,16l-8,6.75a3,3,0,1,0,3.85,4.59l7.48-6.28a1,1,0,0,1,.64-.23h5.23L29.3,32.32a1,1,0,0,0-.14.38L27,45.84l-7.95,7.95a4,4,0,1,0,5.66,5.66l9.51-9.51a1,1,0,0,0,.28-.53l1.62-9.2,4.71,8.15-2.67,7.32a4,4,0,1,0,7.48,2.63l3.42-10.12a1,1,0,0,0-.06-.79L43.51,37l3.63-6.27v3.48A3,3,0,0,0,48.33,36.6Zm-6.83-.12a1,1,0,0,0,0,1l5.57,10.49-3.28,9.72a2,2,0,1,1-3.71-1.3l2.83-7.76a1,1,0,0,0-.07-.84L36.5,36.83a1,1,0,0,0-.87-.5l-.17,0a1,1,0,0,0-.81.81l-2,11.59L23.31,58a2,2,0,1,1-2.83-2.83L28.66,47a1,1,0,0,0,.28-.55l2.16-13.26,8.16-12.83a1,1,0,0,0-.84-1.54H31.36a3,3,0,0,0-1.93.7l-7.48,6.28a1,1,0,0,1-1.28-1.53l8-6.75a3,3,0,0,1,1.93-.7h8.1a7,7,0,0,1,3.25.8l7,3.68a4,4,0,0,1,2.14,3.54V31.3a1,1,0,0,0,1.24,1l6.33-1.59a1,1,0,0,1,.53,2l-8.84,2.51a1,1,0,0,1-1.27-1V27a1,1,0,0,0-1.87-.5Z"/><path d="M3,25H14a1,1,0,0,0,0-2H3a1,1,0,0,0,0,2Z"/><path d="M5,18a1,1,0,0,0,1,1H17a1,1,0,0,0,0-2H6A1,1,0,0,0,5,18Z"/><path d="M20,13a1,1,0,0,0,0-2H9a1,1,0,0,0,0,2Z"/><text x="0" y="79" fill="#000000" font-size="5px" font-weight="bold" font-family="'Helvetica Neue', Helvetica, Arial-Unicode, Arial, Sans-serif">Created by Yoyon Pujiyono</text><text x="0" y="84" fill="#000000" font-size="5px" font-weight="bold" font-family="'Helvetica Neue', Helvetica, Arial-Unicode, Arial, Sans-serif">from the Noun Project</text></svg>