<svg xmlns="http://www.w3.org/2000/svg" version="1.1" viewBox="-5.0 -10.0 110.0 135.0">
 <path d="m81.953 19.902c-0.17578-0.50781-0.66797-0.82812-1.2031-0.80078-19.926 1.2227-29.77-9.2461-29.867-9.3516-0.45312-0.49609-1.3164-0.49609-1.7695 0-0.097656 0.10547-9.8633 10.59-29.867 9.3516-0.53125-0.03125-1.0273 0.29688-1.2031 0.80078-0.18359 0.52344-4.4336 12.977-2.7539 27.988 1.5625 13.938 8.7734 32.648 34.27 42.652 0.14062 0.054687 0.28906 0.082031 0.4375 0.082031 0.14844 0 0.29688-0.027344 0.4375-0.082031 25.496-10.004 32.711-28.715 34.27-42.652 1.6797-15.012-2.5742-27.469-2.7539-27.988zm0.36719 27.805c-2.168 19.133-13.043 32.734-32.32 40.438-19.277-7.7031-30.152-21.305-32.32-40.438-1.3945-12.312 1.4492-23.125 2.3594-26.168 17.324 0.78516 27.094-6.6992 29.961-9.3125 2.7266 2.4883 11.695 9.3711 27.461 9.3672 0.8125 0 1.6484-0.019531 2.5-0.058594 0.91016 3.043 3.7539 13.855 2.3594 26.168zm-7.7969-20.379c-11.145-0.58203-19.137-4.3398-23.879-7.3906-0.39453-0.25391-0.90234-0.25391-1.2969 0-4.7383 3.0508-12.73 6.8086-23.879 7.3906-0.54688 0.027344-1.0039 0.42578-1.1094 0.96094-0.90625 4.5664-1.7891 11.605-0.85938 19.203 1.918 15.703 10.668 27.188 26.004 34.125 0.15625 0.070312 0.32422 0.10547 0.49219 0.10547 0.16797 0 0.33594-0.035156 0.49219-0.10547 15.336-6.9414 24.082-18.422 26.004-34.125 0.92969-7.6016 0.042968-14.641-0.85938-19.203-0.10547-0.53906-0.5625-0.93359-1.1094-0.96094zm-0.027344 13.457h-15.648c-1.2266 0-2.2227-0.99609-2.2227-2.2227v-12.809c4.4609 1.8672 10.082 3.4453 16.836 3.9062 0.54297 2.9648 1.0312 6.832 1.0352 11.125zm-31.121-15.031v12.809c0 1.2266-0.99609 2.2227-2.2227 2.2227h-15.648c0.003906-4.293 0.49219-8.1562 1.0352-11.125 6.7578-0.46094 12.375-2.043 16.836-3.9062zm-16.102 28.281h13.883c1.2266 0 2.2227 0.99609 2.2227 2.2227v19.277c-8.1445-5.3477-13.531-12.543-16.102-21.5zm22.727 25.18c-1.4844-0.6875-2.8828-1.4297-4.2344-2.2109v-20.75c0-2.543-2.0703-4.6133-4.6133-4.6133h-14.492c-0.32422-1.4414-0.59375-2.9141-0.78125-4.4375-0.16797-1.3672-0.26953-2.7109-0.32422-4.0273h15.602c2.543 0 4.6133-2.0703 4.6133-4.6133v-13.883c1.5938-0.76953 3.0039-1.5625 4.2344-2.3203 1.2266 0.75781 2.6406 1.5508 4.2344 2.3203v13.883c0 2.543 2.0703 4.6133 4.6133 4.6133h15.602c-0.054687 1.3164-0.16016 2.6641-0.32422 4.0273-0.1875 1.5234-0.45703 2.9961-0.78125 4.4375h-14.492c-2.543 0-4.6133 2.0703-4.6133 4.6133v20.75c-1.3516 0.77734-2.75 1.5234-4.2344 2.2109zm6.625-3.6797v-19.277c0-1.2266 0.99609-2.2227 2.2227-2.2227h13.883c-2.5703 8.957-7.9609 16.152-16.102 21.5z"/>
<text x="0.0" y="117.5" font-size="5.0" font-weight="bold" font-family="Arbeit Regular, Helvetica, Arial-Unicode, Arial, Sans-serif" fill="#000000">Created by Dutchken</text><text x="0.0" y="122.5" font-size="5.0" font-weight="bold" font-family="Arbeit Regular, Helvetica, Arial-Unicode, Arial, Sans-serif" fill="#000000">from Noun Project</text></svg>