<svg xmlns="http://www.w3.org/2000/svg" xmlns:xlink="http://www.w3.org/1999/xlink" version="1.1" x="0px" y="0px" viewBox="0 0 96 120" style="enable-background:new 0 0 96 96;" xml:space="preserve"><style type="text/css">
	.st0{fill-rule:evenodd;clip-rule:evenodd;}
</style><path class="st0" d="M37.108,41.723c1.273,1.27,3.341,1.27,4.614,0c1.271-1.273,1.271-3.341,0-4.614  c-0.636-0.637-1.472-0.953-2.307-0.953c-0.835,0-1.671,0.316-2.307,0.953C35.838,38.381,35.838,40.45,37.108,41.723L37.108,41.723z   M17.154,69.824c-0.314,0-0.629-0.121-0.869-0.361c-0.48-0.48-0.48-1.258,0-1.739l13.766-13.767V47.55  c0-0.327,0.129-0.64,0.361-0.869l4.186-4.187c-1.415-2.213-1.159-5.191,0.773-7.124c2.23-2.231,5.86-2.231,8.091,0  c2.23,2.231,2.23,5.86,0,8.09c-1.114,1.115-2.581,1.672-4.045,1.672c-1.072,0-2.144-0.302-3.08-0.899l-3.825,3.825v6.409  c0,0.325-0.129,0.638-0.361,0.869L18.023,69.463C17.784,69.703,17.469,69.824,17.154,69.824L17.154,69.824z M55.406,60.02  c1.233,1.232,3.38,1.23,4.614,0c1.27-1.273,1.27-3.341,0-4.614c-0.617-0.615-1.436-0.954-2.307-0.954  c-0.871,0-1.69,0.338-2.307,0.954C54.136,56.679,54.136,58.747,55.406,60.02L55.406,60.02z M43.171,67.078h6.407  c0.327,0,0.64-0.13,0.869-0.361l4.186-4.186c0.912,0.585,1.971,0.903,3.08,0.903c1.528,0,2.964-0.596,4.045-1.676  c2.231-2.23,2.231-5.86,0-8.09c-1.081-1.08-2.517-1.676-4.045-1.676c-1.528,0-2.965,0.596-4.045,1.676  c-1.932,1.932-2.188,4.911-0.773,7.125l-3.825,3.825h-6.409c-0.325,0-0.638,0.13-0.869,0.361L27.666,79.105  c-0.48,0.48-0.48,1.259,0,1.738c0.24,0.24,0.555,0.361,0.869,0.361c0.315,0,0.629-0.121,0.869-0.361L43.171,67.078L43.171,67.078z   M55.079,42.05c1.232,1.231,3.38,1.234,4.612,0c1.271-1.271,1.271-3.34,0-4.612c-0.617-0.617-1.435-0.956-2.307-0.956  c-0.871,0-1.691,0.339-2.305,0.956C53.807,38.71,53.807,40.779,55.079,42.05L55.079,42.05z M54.306,44.563L18.949,79.918  c-0.24,0.24-0.554,0.359-0.869,0.359c-0.314,0-0.629-0.119-0.869-0.359c-0.48-0.482-0.48-1.258,0-1.74l35.355-35.355  c-1.415-2.213-1.159-5.193,0.773-7.125c1.08-1.081,2.518-1.674,4.045-1.674c1.528,0,2.965,0.594,4.045,1.674  c2.231,2.23,2.231,5.861,0,8.092c-1.08,1.08-2.516,1.674-4.045,1.674C56.275,45.464,55.216,45.147,54.306,44.563L54.306,44.563z   M92.712,42.428c0.475,0.183,0.787,0.64,0.787,1.148v8.848c0,0.508-0.313,0.965-0.787,1.148l-6.793,2.615  c-0.986,4.594-2.771,8.908-5.316,12.843l2.952,6.647c0.206,0.464,0.107,1.009-0.254,1.368l-6.257,6.257  c-0.359,0.359-0.905,0.462-1.369,0.254l-6.649-2.952c-3.933,2.542-8.245,4.328-12.842,5.314l-2.614,6.795  c-0.183,0.475-0.64,0.787-1.148,0.787h-8.847c-0.509,0-0.965-0.313-1.149-0.787l-2.614-6.793c-1.779-0.382-3.539-0.892-5.24-1.519  c-0.636-0.235-0.963-0.943-0.729-1.579c0.235-0.638,0.942-0.965,1.58-0.729c1.791,0.66,3.652,1.182,5.533,1.551  c0.414,0.082,0.757,0.37,0.91,0.765l2.552,6.631h7.159l2.555-6.633c0.151-0.395,0.494-0.682,0.91-0.764  c4.748-0.935,9.183-2.771,13.182-5.458c0.352-0.236,0.8-0.274,1.186-0.103l6.491,2.885l5.063-5.064l-2.883-6.489  c-0.171-0.386-0.132-0.834,0.103-1.183c2.689-4.005,4.525-8.441,5.458-13.186c0.082-0.416,0.369-0.759,0.764-0.912l6.631-2.552  v-7.16l-6.633-2.554c-0.394-0.151-0.682-0.496-0.764-0.91c-0.935-4.748-2.769-9.184-5.456-13.183  c-0.236-0.352-0.275-0.8-0.103-1.186l2.883-6.492l-5.063-5.062l-6.49,2.883c-0.385,0.17-0.833,0.133-1.184-0.103  c-4.005-2.687-8.44-4.525-13.188-5.458c-0.414-0.082-0.757-0.37-0.91-0.764L51.579,4.96H44.42l-2.554,6.633  c-0.151,0.394-0.494,0.683-0.91,0.765c-4.749,0.935-9.183,2.771-13.183,5.456c-0.35,0.236-0.798,0.275-1.185,0.103l-6.491-2.883  l-5.064,5.062l2.883,6.492c0.172,0.386,0.133,0.834-0.103,1.186c-2.687,3.999-4.522,8.435-5.457,13.183  c-0.08,0.414-0.369,0.758-0.764,0.91L4.96,44.42v7.16l6.633,2.554c0.395,0.151,0.682,0.496,0.764,0.91  c0.37,1.88,0.893,3.741,1.55,5.531c0.235,0.638-0.09,1.345-0.728,1.578c-0.636,0.236-1.344-0.089-1.579-0.727  c-0.626-1.701-1.136-3.459-1.518-5.24l-6.795-2.615C2.813,53.389,2.5,52.932,2.5,52.424v-8.848c0-0.508,0.313-0.965,0.787-1.148  l6.795-2.615c0.986-4.594,2.771-8.908,5.314-12.841l-2.952-6.649c-0.206-0.464-0.107-1.01,0.254-1.369l6.256-6.257  c0.361-0.359,0.905-0.462,1.368-0.254l6.649,2.952c3.931-2.542,8.245-4.327,12.841-5.314l2.614-6.795  c0.183-0.474,0.64-0.787,1.149-0.787h8.847c0.508,0,0.965,0.313,1.148,0.787l2.614,6.793c4.595,0.987,8.908,2.771,12.843,5.315  l6.647-2.951c0.464-0.206,1.01-0.105,1.369,0.254l6.257,6.257c0.361,0.359,0.46,0.904,0.254,1.369l-2.952,6.649  c2.543,3.932,4.328,8.247,5.314,12.841L92.712,42.428L92.712,42.428z M65.626,65.626c9.719-9.719,9.719-25.534,0-35.252  c-4.708-4.708-10.968-7.3-17.625-7.3c-6.658,0-12.918,2.592-17.626,7.3c-5.583,5.584-8.155,13.278-7.056,21.109  c0.094,0.672-0.376,1.294-1.047,1.388c-0.674,0.092-1.294-0.375-1.388-1.047c-1.207-8.603,1.619-17.056,7.753-23.189  c5.172-5.172,12.048-8.021,19.364-8.021c7.315,0,14.192,2.849,19.364,8.021c10.678,10.678,10.678,28.052,0,38.73  c-5.202,5.202-12.075,8.025-19.291,8.025c-1.29,0-2.591-0.091-3.897-0.274c-0.672-0.094-1.141-0.716-1.047-1.388  c0.094-0.672,0.716-1.139,1.39-1.047C52.349,73.781,60.042,71.209,65.626,65.626z"/><text x="0" y="111" fill="#000000" font-size="5px" font-weight="bold" font-family="'Helvetica Neue', Helvetica, Arial-Unicode, Arial, Sans-serif">Created by Eko Purnomo</text><text x="0" y="116" fill="#000000" font-size="5px" font-weight="bold" font-family="'Helvetica Neue', Helvetica, Arial-Unicode, Arial, Sans-serif">from the Noun Project</text></svg>