<svg xmlns="http://www.w3.org/2000/svg" data-name="Layer 1" viewBox="0 0 100 100" x="0px" y="0px"><path d="M78.64,12.89A10,10,0,0,0,69,20.44H53.61a2.5,2.5,0,0,0,0,5H69a10,10,0,1,0,9.67-12.55Zm0,15.11a5.06,5.06,0,1,1,5-5.06A5,5,0,0,1,78.64,28Z"/><path d="M71.89,46.92A10,10,0,0,0,62,55.54H56l-10.74-23a2.49,2.49,0,0,0-2.27-1.44H33.63a10.05,10.05,0,1,0-.68,5h8.4l10.75,23a2.49,2.49,0,0,0,2.26,1.44h8.2a10,10,0,1,0,9.33-13.62ZM23.71,37.37a5.06,5.06,0,1,1,5-5.06A5,5,0,0,1,23.71,37.37ZM71.89,62a5.05,5.05,0,1,1,5-5.05A5,5,0,0,1,71.89,62Z"/><path d="M59.79,75.23H43.28a10.06,10.06,0,1,0,0,5H59.79a2.5,2.5,0,1,0,0-5ZM33.62,82.79a5.06,5.06,0,1,1,5-5.06A5,5,0,0,1,33.62,82.79Z"/></svg>