<svg xmlns="http://www.w3.org/2000/svg" xmlns:xlink="http://www.w3.org/1999/xlink" version="1.1" x="0px" y="0px" viewBox="0 0 60 75" style="enable-background:new 0 0 60 60;" xml:space="preserve"><path d="M34,53.98h12c0.55,0,1-0.45,1-1v-4c0-0.55-0.45-1-1-1h-1v-2c0.55,0,1-0.45,1-1v-23c0-0.55-0.45-1-1-1h-0.01  c-0.04-4.83-1.32-9.59-3.72-13.79l-0.4-0.71c-0.36-0.62-1.38-0.62-1.74,0l-0.4,0.71c-2.4,4.2-3.68,8.96-3.72,13.79H35  c-0.55,0-1,0.45-1,1v23c0,0.55,0.45,1,1,1v2h-1c-0.55,0-1,0.45-1,1v4C33,53.53,33.45,53.98,34,53.98z M40,9.03  c1.15,2.19,1.97,4.53,2.46,6.95h-4.92C38.03,13.57,38.85,11.23,40,9.03z M37.2,17.98h5.59c0.12,0.99,0.19,2,0.2,3h-5.98  C37.02,19.98,37.08,18.98,37.2,17.98z M36,22.98h8v21h-8V22.98z M43,45.98v2h-6v-2H43z M35,49.98h10v2H35V49.98z"/><path d="M14,53.98h12c0.55,0,1-0.45,1-1v-4c0-0.55-0.45-1-1-1h-1v-2c0.55,0,1-0.45,1-1v-23c0-0.55-0.45-1-1-1h-0.01  c-0.04-4.83-1.32-9.59-3.72-13.79l-0.4-0.71c-0.36-0.62-1.38-0.62-1.74,0l-0.4,0.71c-2.4,4.2-3.68,8.96-3.72,13.79H15  c-0.55,0-1,0.45-1,1v23c0,0.55,0.45,1,1,1v2h-1c-0.55,0-1,0.45-1,1v4C13,53.53,13.45,53.98,14,53.98z M20,9.03  c1.15,2.19,1.97,4.53,2.46,6.95h-4.92C18.03,13.57,18.85,11.23,20,9.03z M17.2,17.98h5.59c0.12,0.99,0.19,2,0.2,3h-5.98  C17.02,19.98,17.08,18.98,17.2,17.98z M16,22.98h8v21h-8V22.98z M23,45.98v2h-6v-2H23z M15,49.98h10v2H15V49.98z"/><text x="0" y="75" fill="#000000" font-size="5px" font-weight="bold" font-family="'Helvetica Neue', Helvetica, Arial-Unicode, Arial, Sans-serif">Created by Vectorstall</text><text x="0" y="80" fill="#000000" font-size="5px" font-weight="bold" font-family="'Helvetica Neue', Helvetica, Arial-Unicode, Arial, Sans-serif">from the Noun Project</text></svg>