<svg xmlns="http://www.w3.org/2000/svg" version="1.1" viewBox="-5.0 -10.0 110.0 135.0">
 <path d="m45.516 35.273h17.703c0.74219 0.019531 1.457-0.26172 1.9883-0.78125 0.53125-0.51563 0.83203-1.2266 0.83203-1.9648 0-0.74219-0.30078-1.4531-0.83203-1.9688s-1.2461-0.79688-1.9883-0.77734h-10.473v-5.9922c0-1.5156-1.2305-2.7461-2.7461-2.7461s-2.7461 1.2305-2.7461 2.7461v5.9922h-1.7383c-6.3398 0-11.48 5.1406-11.48 11.48 0 6.3438 5.1406 11.484 11.48 11.484h8.9766c3.2656 0.058594 5.8828 2.7227 5.8828 5.9922 0 3.2656-2.6172 5.9297-5.8828 5.9883h-17.711c-0.74219-0.019531-1.457 0.26172-1.9883 0.78125-0.53125 0.51563-0.83203 1.2266-0.83203 1.9648 0 0.74219 0.30078 1.4531 0.83203 1.9688s1.2461 0.79688 1.9883 0.77734h10.473v5.9922c0 1.5156 1.2305 2.7461 2.7461 2.7461s2.7461-1.2305 2.7461-2.7461v-5.9922h1.7461c6.3398 0 11.484-5.1406 11.484-11.484 0-6.3398-5.1445-11.48-11.484-11.48h-8.9648c-3.2656-0.058594-5.8828-2.7227-5.8828-5.9922 0-3.2656 2.6172-5.9297 5.8828-5.9883z"/>
 <path d="m50 9.7812c-22.176 0-40.219 18.043-40.219 40.219s18.043 40.219 40.219 40.219 40.219-18.043 40.219-40.219-18.043-40.219-40.219-40.219zm0 74.945c-19.141 0-34.727-15.586-34.727-34.727s15.586-34.727 34.727-34.727 34.727 15.586 34.727 34.727-15.586 34.727-34.727 34.727z"/>
<text x="0.0" y="117.5" font-size="5.0" font-weight="bold" font-family="Arbeit Regular, Helvetica, Arial-Unicode, Arial, Sans-serif" fill="#000000">Created by farhan Daroyni</text><text x="0.0" y="122.5" font-size="5.0" font-weight="bold" font-family="Arbeit Regular, Helvetica, Arial-Unicode, Arial, Sans-serif" fill="#000000">from Noun Project</text></svg>