<svg xmlns="http://www.w3.org/2000/svg" xmlns:xlink="http://www.w3.org/1999/xlink" version="1.1" x="0px" y="0px" viewBox="0 0 16 20" style="enable-background:new 0 0 16 16;" xml:space="preserve"><g><g><path d="M8,9C7.884,9,7.768,8.96,7.675,8.88l-3.5-3C4.016,5.744,3.958,5.523,4.031,5.327C4.104,5.13,4.291,5,4.5,5H6V0.5    C6,0.224,6.224,0,6.5,0h3C9.776,0,10,0.224,10,0.5V5h1.5c0.209,0,0.396,0.13,0.469,0.327c0.073,0.196,0.016,0.417-0.144,0.553    l-3.5,3C8.231,8.96,8.116,9,8,9z M5.852,6L8,7.841L10.148,6H9.5C9.224,6,9,5.776,9,5.5V1H7v4.5C7,5.776,6.776,6,6.5,6H5.852z"/></g><path d="M8,16c-1.654,0-3-1.346-3-3s1.346-3,3-3s3,1.346,3,3S9.654,16,8,16z M8,11c-1.103,0-2,0.897-2,2s0.897,2,2,2   c1.103,0,2-0.897,2-2S9.103,11,8,11z"/></g><text x="0" y="31" fill="#000000" font-size="5px" font-weight="bold" font-family="'Helvetica Neue', Helvetica, Arial-Unicode, Arial, Sans-serif">Created by icon 54</text><text x="0" y="36" fill="#000000" font-size="5px" font-weight="bold" font-family="'Helvetica Neue', Helvetica, Arial-Unicode, Arial, Sans-serif">from the Noun Project</text></svg>