<svg xmlns="http://www.w3.org/2000/svg" xmlns:xlink="http://www.w3.org/1999/xlink" version="1.1" x="0px" y="0px" viewBox="-3.2 -6.4 70.4 86.4" style="enable-background:new 0 0 64 64;" xml:space="preserve"><g><path d="M32.06,34.33H21.1c-0.48,0-0.87,0.39-0.87,0.86v15.26c0,0.47,0.39,0.86,0.87,0.86h10.96c4.15,0,16.12-3.33,16.12-8.49   C48.18,37.66,36.21,34.33,32.06,34.33z M32.06,49.58h-10.1V36.06h10.1c4.41,0,14.39,3.46,14.39,6.76   C46.45,46.12,36.47,49.58,32.06,49.58z"/><path d="M13.14,31.86c0,0.48-0.39,0.86-0.87,0.86H3.81c-0.48,0-0.86-0.38-0.86-0.86s0.38-0.87,0.86-0.87h8.46   C12.75,30.99,13.14,31.38,13.14,31.86z"/><path d="M19.46,35.67c0,0.48-0.39,0.87-0.86,0.87H8.58c-0.48,0-0.87-0.39-0.87-0.87S8.1,34.8,8.58,34.8H18.6   C19.07,34.8,19.46,35.19,19.46,35.67z"/><path d="M17.99,39.48c0,0.48-0.39,0.87-0.86,0.87h-2.74c-0.48,0-0.87-0.39-0.87-0.87c0-0.47,0.39-0.86,0.87-0.86h2.74   C17.6,38.62,17.99,39.01,17.99,39.48z"/><path d="M7.42,39.48c0,0.48-0.39,0.87-0.87,0.87H3.81c-0.48,0-0.86-0.39-0.86-0.87c0-0.47,0.38-0.86,0.86-0.86h2.74   C7.03,38.62,7.42,39.01,7.42,39.48z"/><path d="M13.14,53.78c0,0.48-0.39,0.87-0.87,0.87H3.81c-0.48,0-0.86-0.39-0.86-0.87c0-0.47,0.38-0.86,0.86-0.86h8.46   C12.75,52.92,13.14,53.31,13.14,53.78z"/><path d="M29.14,53.78c0,0.48-0.39,0.87-0.87,0.87h-8.46c-0.48,0-0.86-0.39-0.86-0.87c0-0.47,0.38-0.86,0.86-0.86h8.46   C28.75,52.92,29.14,53.31,29.14,53.78z"/><path d="M19.46,49.97c0,0.48-0.39,0.87-0.86,0.87H8.58c-0.48,0-0.87-0.39-0.87-0.87S8.1,49.1,8.58,49.1H18.6   C19.07,49.1,19.46,49.49,19.46,49.97z"/><path d="M17.99,46.16c0,0.47-0.39,0.86-0.86,0.86h-2.74c-0.48,0-0.87-0.39-0.87-0.86c0-0.48,0.39-0.87,0.87-0.87h2.74   C17.6,45.29,17.99,45.68,17.99,46.16z"/><path d="M7.42,46.16c0,0.47-0.39,0.86-0.87,0.86H3.81c-0.48,0-0.86-0.39-0.86-0.86c0-0.48,0.38-0.87,0.86-0.87h2.74   C7.03,45.29,7.42,45.68,7.42,46.16z"/><path d="M13.77,42.82c0,0.48-0.39,0.87-0.86,0.87H9.57c-0.48,0-0.87-0.39-0.87-0.87s0.39-0.87,0.87-0.87h3.34   C13.38,41.95,13.77,42.34,13.77,42.82z"/><path d="M44.94,12.69H33.97c-0.48,0-0.86,0.39-0.86,0.86v15.26c0,0.47,0.38,0.86,0.86,0.86h10.97c4.14,0,16.11-3.34,16.11-8.49   C61.05,16.02,49.08,12.69,44.94,12.69z M44.94,27.94h-10.1V14.42h10.1c4.4,0,14.38,3.46,14.38,6.76   C59.32,24.48,49.34,27.94,44.94,27.94z"/><path d="M26.01,10.22c0,0.47-0.39,0.86-0.86,0.86h-8.46c-0.48,0-0.87-0.39-0.87-0.86c0-0.48,0.39-0.87,0.87-0.87h8.46   C25.62,9.35,26.01,9.74,26.01,10.22z"/><path d="M32.34,14.03c0,0.48-0.39,0.86-0.87,0.86H21.45c-0.48,0-0.86-0.38-0.86-0.86s0.38-0.87,0.86-0.87h10.02   C31.95,13.16,32.34,13.55,32.34,14.03z"/><path d="M30.87,17.84c0,0.48-0.39,0.87-0.87,0.87h-2.74c-0.48,0-0.87-0.39-0.87-0.87s0.39-0.86,0.87-0.86H30   C30.48,16.98,30.87,17.36,30.87,17.84z"/><path d="M20.29,17.84c0,0.48-0.39,0.87-0.86,0.87h-2.74c-0.48,0-0.87-0.39-0.87-0.87s0.39-0.86,0.87-0.86h2.74   C19.9,16.98,20.29,17.36,20.29,17.84z"/><path d="M25.146,33.008h-8.46c-0.478,0-0.866-0.388-0.866-0.866s0.388-0.866,0.866-0.866h8.46c0.478,0,0.866,0.388,0.866,0.866   S25.625,33.008,25.146,33.008z"/><path d="M40.01,32.14c0,0.48-0.39,0.87-0.86,0.87h-8.46c-0.48,0-0.87-0.39-0.87-0.87s0.39-0.86,0.87-0.86h8.46   C39.62,31.28,40.01,31.66,40.01,32.14z"/><path d="M32.34,28.33c0,0.48-0.39,0.86-0.87,0.86H21.45c-0.48,0-0.86-0.38-0.86-0.86s0.38-0.87,0.86-0.87h10.02   C31.95,27.46,32.34,27.85,32.34,28.33z"/><path d="M30.87,24.52c0,0.47-0.39,0.86-0.87,0.86h-2.74c-0.48,0-0.87-0.39-0.87-0.86c0-0.48,0.39-0.87,0.87-0.87H30   C30.48,23.65,30.87,24.04,30.87,24.52z"/><path d="M20.29,24.52c0,0.47-0.39,0.86-0.86,0.86h-2.74c-0.48,0-0.87-0.39-0.87-0.86c0-0.48,0.39-0.87,0.87-0.87h2.74   C19.9,23.65,20.29,24.04,20.29,24.52z"/><path d="M26.65,21.18c0,0.48-0.39,0.86-0.87,0.86h-3.34c-0.47,0-0.86-0.38-0.86-0.86s0.39-0.87,0.86-0.87h3.34   C26.26,20.31,26.65,20.7,26.65,21.18z"/></g><text x="0.0" y="75.2" font-size="3.2" font-weight="bold" font-family="Arbeit Regular, Helvetica, Arial-Unicode, Arial, Sans-serif" fill="#000000">Created by rizal2109</text><text x="0.0" y="78.4" font-size="3.2" font-weight="bold" font-family="Arbeit Regular, Helvetica, Arial-Unicode, Arial, Sans-serif" fill="#000000">from Noun Project</text></svg>