<svg xmlns="http://www.w3.org/2000/svg" version="1.1" viewBox="-5.0 -10.0 110.0 135.0">
 <path d="m93.953 21.391-15.375-15.391c-1.7656-1.7656-4.8438-1.7656-6.6094 0l-65.922 65.953c-1.8281 1.8281-1.8281 4.7812 0 6.6094l15.375 15.391c0.875 0.89062 2.0469 1.375 3.2969 1.375s2.4219-0.48438 3.2969-1.375l25.266-25.266 10.969-11 10.984-10.984 18.672-18.688c1.8281-1.8281 1.8281-4.7812 0-6.6094zm-2.2031 4.3906-6.5781 6.5938-2.1875-2.1875c-0.60938-0.60938-1.5938-0.60938-2.2031 0s-0.60938 1.5938 0 2.2031l2.1875 2.1875-3.2812 3.2812-5.4844-5.4844c-0.60938-0.60938-1.5938-0.60938-2.2031 0s-0.60938 1.5938 0 2.2031l5.4844 5.4844-3.2812 3.2812-2.1875-2.1875c-0.60938-0.60938-1.5938-0.60938-2.2031 0s-0.60938 1.5938 0 2.2031l2.1875 2.1875-3.2812 3.2812-2.1875-2.1875c-0.60938-0.60938-1.5938-0.60938-2.2031 0s-0.60938 1.5938 0 2.2031l2.1875 2.1875-3.2812 3.2812-5.4844-5.4844c-0.60938-0.60938-1.5938-0.60938-2.2031 0s-0.60938 1.5938 0 2.2031l5.4844 5.4844-3.2812 3.2812-2.1875-2.1875c-0.60938-0.60938-1.5938-0.60938-2.2031 0s-0.60938 1.5938 0 2.2031l2.1875 2.1875-3.2812 3.2812-2.1875-2.1875c-0.60938-0.60938-1.5938-0.60938-2.2031 0s-0.60938 1.5938 0 2.2031l2.1875 2.1875-3.2812 3.2812-5.4844-5.4844c-0.60938-0.60938-1.5938-0.60938-2.2031 0s-0.60938 1.5938 0 2.2031l5.4844 5.4844-3.2812 3.2812-2.1875-2.1875c-0.60938-0.60938-1.5938-0.60938-2.2031 0s-0.60938 1.5938 0 2.2031l2.1875 2.1875-3.2812 3.2812-2.1875-2.1875c-0.60938-0.60938-1.5938-0.60938-2.2031 0s-0.60938 1.5938 0 2.2031l2.1875 2.1875-3.2812 3.2812-5.4844-5.4844c-0.60938-0.60938-1.5938-0.60938-2.2031 0s-0.60938 1.5938 0 2.2031l5.4844 5.4844-2.1875 2.1875c-0.57812 0.57812-1.6094 0.57812-2.1875 0l-15.375-15.391c-0.59375-0.60938-0.59375-1.5781 0-2.1875l65.797-65.812c0.29688-0.29688 0.67188-0.45312 1.0938-0.45312s0.79688 0.15625 1.0938 0.45312l15.375 15.391c0.59375 0.60938 0.59375 1.5781 0 2.1875z"/>
 <path d="m74.812 18.516c-0.89062 0.89062-1.375 2.0625-1.375 3.3125s0.48438 2.4375 1.375 3.3125 2.1094 1.375 3.3125 1.375 2.4062-0.45312 3.3125-1.375c0.89062-0.89062 1.375-2.0625 1.375-3.3125s-0.48438-2.4375-1.375-3.3125c-1.8281-1.8281-4.7969-1.8281-6.625 0zm4.4219 4.4219c-0.60938 0.60938-1.5938 0.60938-2.2031 0-0.29688-0.29688-0.45312-0.6875-0.45312-1.1094s0.15625-0.8125 0.45312-1.1094c0.3125-0.29688 0.70312-0.45312 1.1094-0.45312s0.79688 0.15625 1.1094 0.45312c0.29688 0.29688 0.45312 0.6875 0.45312 1.1094s-0.15625 0.8125-0.45312 1.1094z"/>
<text x="0.0" y="117.5" font-size="5.0" font-weight="bold" font-family="Arbeit Regular, Helvetica, Arial-Unicode, Arial, Sans-serif" fill="#000000">Created by Roat Studio</text><text x="0.0" y="122.5" font-size="5.0" font-weight="bold" font-family="Arbeit Regular, Helvetica, Arial-Unicode, Arial, Sans-serif" fill="#000000">from Noun Project</text></svg>