<svg xmlns="http://www.w3.org/2000/svg" xmlns:xlink="http://www.w3.org/1999/xlink" version="1.1" x="0px" y="0px" viewBox="0 0 100 125" style="enable-background:new 0 0 100 100;" xml:space="preserve"><path d="M88.5297852,31.7036133c0-1.3110352-1.0673828-2.3779297-2.3789063-2.3779297h-10.447937  c0.0177612-0.116333,0.0358276-0.2327881,0.0358276-0.3540039v-0.9589844c0-1.2978516-1.0566406-2.3540039-2.3544922-2.3540039  h-5.0205078c-0.5134277,0-0.9853516,0.1698608-1.3728027,0.4500122l-5.2213745-5.2561646  C61.3649292,19.4625244,60.0940552,18.4375,58.5756836,18.4375H43.456543c-1.657959,0-3.0275269,1.2179565-3.286499,2.8043213  l-4.9668579,5.0005493c-0.4133911-0.3587036-0.9459229-0.5836792-1.534729-0.5836792h-5.0205078  c-1.2978516,0-2.3544922,1.0561523-2.3544922,2.3540039v0.9589844c0,0.1212158,0.0180664,0.2376709,0.0358276,0.3540039H14.1870117  c-1.3115234,0-2.3779297,1.0668945-2.3779297,2.3779297v5.5986938c-0.2125244,0.3267212-0.3388672,0.7146606-0.3388672,1.1327515  v11.3676758c0,1.1316528,0.9066772,2.0505981,2.03125,2.0803833v23.6305542c0,1.2978516,1.0556641,2.3535156,2.3535156,2.3535156  h18.1679688v2.1704102c0,0.8408203,0.6835938,1.5249023,1.5244141,1.5249023h4.3515625  c0.8408203,0,1.5244141-0.684082,1.5244141-1.5249023v-2.1704102h2.5898438v2.1704102  c0,0.8408203,0.6835938,1.5249023,1.5244141,1.5249023h4.3515625c0.8408203,0,1.5244141-0.684082,1.5244141-1.5249023v-2.1704102  h2.5898438v2.1704102c0,0.8408203,0.6835938,1.5249023,1.5244141,1.5249023h4.3515625  c0.8408203,0,1.5244141-0.684082,1.5244141-1.5249023v-2.1704102h2.5898438v2.1704102  c0,0.8408203,0.6835938,1.5249023,1.5244141,1.5249023h4.3515625c0.8408203,0,1.5244141-0.684082,1.5244141-1.5249023v-2.1704102  h2.7255859v2.1704102c0,0.8408203,0.6845703,1.5249023,1.5253906,1.5249023h4.3505859  c0.8408203,0,1.5253906-0.684082,1.5253906-1.5249023v-2.1704102h3.7236328c1.2978516,0,2.3544922-1.0556641,2.3544922-2.3535156  V38.3491211h0.9306641V31.7036133z M68.3637695,27.6586914h5.0205078c0.1953125,0,0.3544922,0.1586914,0.3544922,0.3540039  v0.9589844c0,0.1953125-0.1591797,0.3540039-0.3544922,0.3540039h-5.0205078c-0.1953125,0-0.3544922-0.1586914-0.3544922-0.3540039  v-0.9589844C68.0092773,27.8173828,68.168457,27.6586914,68.3637695,27.6586914z M36.0229492,28.9716797v-0.7158203  l4.6340942-4.6656494c0.5960693,0.9182739,1.6259155,1.5299072,2.7994995,1.5299072h15.1191406  c1.25177,0,2.3321533-0.7006226,2.9042358-1.7225952l4.5344849,4.5646362  c-0.0003662,0.0172119-0.005127,0.0332642-0.005127,0.0505371v0.9589844c0,0.1212158,0.0180664,0.2376709,0.0358276,0.3540039  H35.9871216C36.0048828,29.2093506,36.0229492,29.0928955,36.0229492,28.9716797z M43.456543,20.4375h15.1191406  c0.7392578,0,1.3408203,0.6015625,1.3408203,1.3413086s-0.6015625,1.3413086-1.3408203,1.3413086H43.456543  c-0.7392578,0-1.3408203-0.6015625-1.3408203-1.3413086S42.7172852,20.4375,43.456543,20.4375z M28.293457,28.9716797v-0.9589844  c0-0.1953125,0.1591797-0.3540039,0.3544922-0.3540039h5.0205078c0.1953125,0,0.3544922,0.1586914,0.3544922,0.3540039v0.9589844  c0,0.1953125-0.1591797,0.3540039-0.3544922,0.3540039h-5.0205078C28.4526367,29.3256836,28.293457,29.1669922,28.293457,28.9716797  z M13.809082,31.7036133c0-0.2084961,0.1699219-0.3779297,0.3779297-0.3779297h14.4609375h5.0205078h34.6953125h5.0205078  h12.7666016c0.2089844,0,0.3789063,0.1694336,0.3789063,0.3779297v4.6455078H15.4458008H13.809082V31.7036133z   M13.4702148,49.8027344V38.4350586c0-0.0473633,0.0380859-0.0859375,0.0859375-0.0859375h1.8896484  c0.0478516,0,0.0859375,0.0385742,0.0859375,0.0859375v11.3676758c0,0.0473633-0.0380859,0.0859375-0.0859375,0.0859375h-1.8896484  C13.5083008,49.8886719,13.4702148,49.8500977,13.4702148,49.8027344z M39.4233398,79.5625h-3.4003906v-1.6953125V61.597168  l1.6396484-5.1538086l1.7607422,5.1660156v1.2543945v10.3496094v4.6538086V79.5625z M44.0131836,71.2133789h-2.5898438v-6.3496094  h2.5898438V71.2133789z M41.4233398,75.8671875v-2.6538086h2.5898438v2.6538086H41.4233398z M49.4135742,79.5625h-3.4003906  v-1.6953125v-4.6538086V62.8637695V61.597168l1.6396484-5.1538086l1.7607422,5.1660156v1.2543945v10.3496094v4.6538086V79.5625z   M54.003418,71.2133789h-2.5898438v-6.3496094h2.5898438V71.2133789z M51.4135742,75.8671875v-2.6538086h2.5898438v2.6538086  H51.4135742z M59.4038086,79.5625H56.003418v-1.6953125v-4.6538086V62.8637695V61.597168l1.6396484-5.1538086l1.7607422,5.1660156  v1.2543945v10.3496094v4.6538086V79.5625z M63.9936523,71.2133789h-2.5898438v-6.3496094h2.5898438V71.2133789z   M61.4038086,75.8671875v-2.6538086h2.5898438v2.6538086H61.4038086z M69.394043,79.5625h-3.4003906v-1.6953125v-4.6538086  V62.8637695V61.597168l1.6396484-5.1538086l1.7607422,5.1660156v1.2543945v10.3496094v4.6538086V79.5625z M71.394043,64.8637695  h2.5898438v6.3496094H71.394043V64.8637695z M71.394043,75.8671875v-2.6538086h2.7255859v2.6538086H71.394043z M79.5209961,79.5625  h-3.4013672v-1.6953125V61.6000977l1.640625-5.1557617l1.7607422,5.1650391v16.2578125V79.5625z M85.5991211,75.5136719  c0,0.1952438-0.1582718,0.3535156-0.3535156,0.3535156h-3.7246094v-14.339386c0-0.1662598-0.0273819-0.3313828-0.0810547-0.488739  l-2.2529297-6.6054688c-0.2109375-0.6196289-0.7890625-1.0332031-1.4423828-1.0332031c-0.0048828,0-0.0107422,0-0.015625,0  c-0.6601563,0.0068359-1.2373047,0.434082-1.4375,1.0625l-2.0976563,6.5942383  c-0.0491867,0.1546173-0.0742188,0.3158989-0.0742188,0.4781532v1.3284874H71.394043v-1.3339844  c0-0.1675034-0.0275803-0.3338661-0.0816269-0.4924126l-2.2513809-6.6037788  c-0.2109375-0.6196289-0.7890625-1.0332031-1.4433594-1.0332031c-0.0048828,0-0.0097656,0-0.015625,0  c-0.6601563,0.0068359-1.2373047,0.434082-1.4375,1.0625l-2.0991898,6.5990639  c-0.0475235,0.1493874-0.0717087,0.3052101-0.0717087,0.4619713v1.3398438h-2.5898438v-1.3357697  c0-0.1663208-0.0273857-0.3315125-0.0810547-0.4889374l-2.2519531-6.6054688  c-0.2109375-0.6196289-0.7890625-1.0332031-1.4433594-1.0332031c-0.0048828,0-0.0097656,0-0.015625,0  c-0.6601563,0.0068359-1.2373047,0.434082-1.4375,1.0625l-2.0991898,6.5990639  c-0.0475235,0.1493874-0.0717087,0.3052101-0.0717087,0.4619713v1.3398438h-2.5898438v-1.3356323  c0-0.1663666-0.0273857-0.3316002-0.0810547-0.4890747l-2.2519531-6.6074219  c-0.2138672-0.6245117-0.7958984-1.0385742-1.4609375-1.03125c-0.6591797,0.0073242-1.2353516,0.4345703-1.4355469,1.0625  l-2.0991898,6.5990639c-0.0475235,0.1493874-0.0717087,0.3052101-0.0717087,0.4619713v1.3398438h-2.5898438v-1.3356323  c0-0.1663666-0.0273857-0.3316002-0.0810547-0.4890747l-2.2519531-6.6074219  c-0.2138672-0.6245117-0.7880859-1.0385742-1.4609375-1.03125c-0.6591797,0.0073242-1.2353516,0.4345703-1.4355469,1.0625  l-2.0991898,6.5990639c-0.0475235,0.1493874-0.0717087,0.3052101-0.0717087,0.4619713v14.3432617H15.8549805  c-0.195241,0-0.3535156-0.1582718-0.3535156-0.3535156V51.8876953c0.0644531-0.001709,0.1251831-0.0161743,0.1880493-0.0236206  c0.0668335-0.0078735,0.1349487-0.0110474,0.199707-0.0251465c0.0709839-0.0153809,0.1372681-0.0414429,0.2053833-0.0639038  c0.0602417-0.0198975,0.1224365-0.0350342,0.1801758-0.0601196c0.0667725-0.0290527,0.1273193-0.0678101,0.1902466-0.1033936  c0.0531616-0.0300903,0.1089478-0.055603,0.1591187-0.0900879c0.0599365-0.0411987,0.1123047-0.0911865,0.1674805-0.1382446  c0.0457153-0.0390015,0.0948486-0.0736084,0.1370239-0.116333c0.0523071-0.0529175,0.095459-0.1137085,0.1419067-0.1719971  c0.0361938-0.0454102,0.0768433-0.0869141,0.1091919-0.1352539c0.0435791-0.0651245,0.076416-0.1370239,0.1125488-0.2070313  c0.0252075-0.0488281,0.0559082-0.0940552,0.0772705-0.1449585c0.0337524-0.0803833,0.0548096-0.166687,0.0783691-0.2518311  c0.0127563-0.0460815,0.0321655-0.0892944,0.041748-0.1365967c0.0274048-0.1346436,0.0420532-0.2738037,0.0420532-0.4164429  V38.4350586c0-0.0288086-0.0009766-0.0576172-0.0019531-0.0859375h8.3115234v8.4082031c0,0.5522842,0.4477139,1,0.9999981,1  h0.0000038c0.5522842,0,0.9999981-0.4477158,0.9999981-1v-8.4082031h44.65625v8.4082031c0,0.5522842,0.4477158,1,1,1l0,0  c0.5522842,0,1-0.4477158,1-1v-8.4082031h11.1015625V75.5136719z"/><text x="0" y="115" fill="#000000" font-size="5px" font-weight="bold" font-family="'Helvetica Neue', Helvetica, Arial-Unicode, Arial, Sans-serif">Created by Fath Yusuf Iskhaqy</text><text x="0" y="120" fill="#000000" font-size="5px" font-weight="bold" font-family="'Helvetica Neue', Helvetica, Arial-Unicode, Arial, Sans-serif">from the Noun Project</text></svg>