<svg xmlns="http://www.w3.org/2000/svg" data-name="Layer 1" viewBox="0 0 512 640" x="0px" y="0px"><title>3186 - Tachometer</title><path d="M256,361.88a49.65,49.65,0,1,1,49.65-49.64A49.71,49.71,0,0,1,256,361.88Zm0-83.29a33.65,33.65,0,1,0,33.65,33.65A33.69,33.69,0,0,0,256,278.59Z"/><path d="M296,308.6a8,8,0,0,1-6.54-12.6l40.72-57.93-57.93,40.72A8,8,0,0,1,263,265.7l95.45-67.09a8,8,0,0,1,11.14,11.14L302.54,305.2A8,8,0,0,1,296,308.6Z"/><path d="M256,140.24a8,8,0,0,1-8-8v-45a8,8,0,0,1,16,0v45A8,8,0,0,1,256,140.24Z"/><path d="M166,164.36a8,8,0,0,1-6.94-4l-22.5-39a8,8,0,0,1,13.86-8l22.5,39a8,8,0,0,1-6.92,12Z"/><path d="M100.11,230.24a7.92,7.92,0,0,1-4-1.07l-39-22.5a8,8,0,0,1,8-13.86l39,22.5a8,8,0,0,1-4,14.93Z"/><path d="M76,320.24H31a8,8,0,0,1,0-16H76a8,8,0,0,1,0,16Z"/><path d="M450.88,432.76a7.94,7.94,0,0,1-4-1.07l-39-22.54a8,8,0,0,1-2.92-10.94,171.72,171.72,0,0,0,23.07-86c0-94.84-77.16-172-172-172S84,217.4,84,312.24a171.72,171.72,0,0,0,23.07,86,8,8,0,0,1-2.92,10.94l-39,22.54a8,8,0,0,1-10.92-2.92,233,233,0,1,1,403.62,0A8,8,0,0,1,450.88,432.76Zm-28.24-33.55,25.2,14.55A217.13,217.13,0,0,0,473,312.24c0-119.65-97.35-217-217-217s-217,97.35-217,217A217.13,217.13,0,0,0,64.16,413.76l25.2-14.55a187.69,187.69,0,0,1-21.36-87c0-103.66,84.34-188,188-188s188,84.34,188,188A187.69,187.69,0,0,1,422.64,399.21Z"/><path d="M481,320.24H436a8,8,0,0,1,0-16h45a8,8,0,0,1,0,16Z"/><path d="M411.89,230.24a8,8,0,0,1-4-14.93l39-22.5a8,8,0,0,1,8,13.86l-39,22.5A7.89,7.89,0,0,1,411.89,230.24Z"/><path d="M346,164.36a8,8,0,0,1-6.92-12l22.5-39a8,8,0,0,1,13.86,8l-22.5,39A8,8,0,0,1,346,164.36Z"/><text x="0" y="527" fill="#000000" font-size="5px" font-weight="bold" font-family="'Helvetica Neue', Helvetica, Arial-Unicode, Arial, Sans-serif">Created by Designing Hub</text><text x="0" y="532" fill="#000000" font-size="5px" font-weight="bold" font-family="'Helvetica Neue', Helvetica, Arial-Unicode, Arial, Sans-serif">from the Noun Project</text></svg>