<svg xmlns="http://www.w3.org/2000/svg" viewBox="0 0 64 80" x="0px" y="0px"><g><g><path d="M43,34h3c.5527,0,1-.4478,1-1s-.4473-1-1-1h-3c-.5527,0-1,.4478-1,1s.4473,1,1,1Z"/><path d="M60,41.2783v-8.038c0-1.1436-.6377-2.1724-1.6621-2.6841l-4.5332-2.2715-2.9062-7.9995c-.7207-1.9648-2.6094-3.2852-4.6982-3.2852h-6.2002v-1c0-1.6543-1.3457-3-3-3h-7.3301c-.7676,0-1.4688,.29-2,.7656-.5312-.4756-1.2324-.7656-2-.7656h-7.3398c-.7676,0-1.4688,.29-2,.7656-.5312-.4756-1.2324-.7656-2-.7656H7c-1.6543,0-3,1.3457-3,3v25.2783c-.5948,.3469-1,.9847-1,1.7217v2c0,1.103,.8975,2,2,2h4.6851c1.1264,2.3608,3.5299,4,6.3149,4s5.1885-1.6392,6.3149-4h18.3702c1.1264,2.3608,3.5299,4,6.3149,4s5.1885-1.6392,6.3149-4h5.6851c1.1025,0,2-.897,2-2v-2c0-.737-.4052-1.3748-1-1.7217Zm-8.4268-13.2783h-7.5732v-5h5.7574l1.8159,5Zm-5.373-9c1.2539,0,2.3877,.7935,2.8203,1.9712l.0104,.0288h-6.0309c-.5527,0-1,.4478-1,1v7c0,.5522,.4473,1,1,1h9.7632l4.6801,2.3447c.3428,.1719,.5566,.5146,.5566,.8955v7.7598h-4.6851c-1.1264-2.3608-3.5299-4-6.3149-4s-5.1885,1.6392-6.3149,4h-.6851V19h6.2002Zm-23.8853,22c-1.1264-2.3608-3.5299-4-6.3149-4s-5.1885,1.6392-6.3149,4h-3.6851v-7H38v7h-15.6851Zm7.355-26h7.3301c.5518,0,1,.4487,1,1v16h-9.333v-15.9855l.0029-.0145c0-.5513,.4482-1,1-1Zm-11.3398,0h7.3398c.5492,0,.9944,.445,.9985,.9927l-.0015,.0073v16h-9.334V16l-.0015-.0073c.0042-.5477,.4493-.9927,.9985-.9927Zm-12.3301,1c0-.5513,.4482-1,1-1h7.3301c.5518,0,1,.4487,1,1l.0029,.0145v15.9855H6V16Zm-1,29v-2h4.0799c-.0472,.3275-.0799,.6596-.0799,1s.0327,.6725,.0799,1H5Zm11,4c-2.7568,0-5-2.2432-5-5s2.2432-5,5-5,5,2.2432,5,5-2.2432,5-5,5Zm6.9202-4c.0472-.3275,.0798-.6596,.0798-1s-.0327-.6725-.0798-1h17.1597c-.0472,.3275-.0799,.6596-.0799,1s.0327,.6725,.0799,1H22.9202Zm24.0798,4c-2.7568,0-5-2.2432-5-5s2.2432-5,5-5,5,2.2432,5,5-2.2432,5-5,5Zm12-4h-5.0798c.0472-.3275,.0798-.6596,.0798-1s-.0327-.6725-.0798-1h5.0798v2Z"/><circle cx="16" cy="44" r="2"/><circle cx="47" cy="44" r="2"/></g></g><text x="0" y="79" fill="#000000" font-size="5px" font-weight="bold" font-family="'Helvetica Neue', Helvetica, Arial-Unicode, Arial, Sans-serif">Created by Andi Nur Abdillah</text><text x="0" y="84" fill="#000000" font-size="5px" font-weight="bold" font-family="'Helvetica Neue', Helvetica, Arial-Unicode, Arial, Sans-serif">from the Noun Project</text></svg>