<svg xmlns="http://www.w3.org/2000/svg" data-name="Layer 1" viewBox="0 0 512 640" x="0px" y="0px"><title>Military vehicle</title><path d="M500.28,214.129l-25.61-8.856V181.43a6,6,0,0,0-6-6h-6.99V100.39a6,6,0,0,0-12,0v75.04h-6.51a6,6,0,0,0-6,6v10.875l-35.95-12.432V145.5a26.029,26.029,0,0,0-26-26H363.81V98.73a6,6,0,0,0-5.26-5.954l-93.61-11.63A6,6,0,0,0,258.2,87.1V99.487l-27.661-2.356a6,6,0,0,0-6.509,5.979v7.384l-89.483-8.75a15.513,15.513,0,0,0-15.069,8.222l-55.056-4.8a6,6,0,0,0-1.043,11.955l55.053,4.8a15.488,15.488,0,0,0,2.891,5.233,15.333,15.333,0,0,0,10.464,5.469l92.243,9v7.329l-15.654-1.678a27.265,27.265,0,0,0-20.757,6.48l-9.658-3a14.625,14.625,0,0,0-17.716,8.038l-15.99,36.069a6,6,0,1,0,10.971,4.864l15.989-36.068a2.626,2.626,0,0,1,3.182-1.445l5.793,1.8-21.966,49.275-3.781.484c-6.769.871-13.58,1.967-20.3,3.24a27.843,27.843,0,0,0-9.1-3.813V206.65h3.86a6,6,0,0,0,0-12H109.19a6,6,0,0,0,0,12h3.86v6.517a27.637,27.637,0,0,0-18.306,13.768c-14.476,5.718-63.409,29.947-69.3,32.87a6,6,0,0,0-3.2,6.61l.605,2.872-10.5,2.393a6,6,0,0,0-4.52,7.172l4.561,20.181a6,6,0,0,0,6.516,4.64l10.92-1.215,2.612,12.412H17.68a6,6,0,0,0-5.595,8.169l16.94,43.7a5.951,5.951,0,0,0,1.242,1.937l-.012.01,22.079,23.421A6,6,0,0,0,56.7,393.99H78.23a6,6,0,0,0,5.9-7.11l-4.41-23.421-.01,0c-.022-.113-.036-.227-.064-.339l-9.6-38.606L136.2,298.311c25.663-9.857,50.457-3.376,60.292,15.76l14.488,28.2c.026.048.049.1.076.145l20.866,40.615a6,6,0,1,0,10.674-5.484l-6.319-12.3h50.6l3.244,10.893a6,6,0,1,0,11.5-3.425l-4.27-14.341V341.7l43.2-51.581H383.78a46.042,46.042,0,0,1,41.638,26.587l15.42,33.219a6,6,0,0,0,5.442,3.474h9.4a6,6,0,0,0,6-6V330.81h19.98a6,6,0,0,0,6-6V266.18h10.66a6,6,0,0,0,6-6V219.8A6,6,0,0,0,500.28,214.129ZM22.91,291.153l-2.057-9.1,4.462-1.017,2.027,9.628ZM449.17,187.43h13.5v13.693l-13.5-4.669Zm-23.905,13.459,20.542,53.291H388.65V188.226ZM363.81,169.1V131.5h11.41a14.015,14.015,0,0,1,14,14v30.223l-4.608-1.593a6,6,0,0,0-7.962,5.67v74.38H363.81V169.33c0-.027-.007-.053-.008-.081C363.8,169.2,363.81,169.15,363.81,169.1ZM132.884,120.672a3.454,3.454,0,0,1-2.367-1.231,3.494,3.494,0,0,1-.81-2.554v-.006h0a3.5,3.5,0,0,1,1.242-2.378,3.414,3.414,0,0,1,2.485-.811l90.6,8.86v7.014Zm-28.3,113.411a15.7,15.7,0,1,1-1.243,6.127A15.687,15.687,0,0,1,104.583,234.083ZM26.44,326.87H58.26l7.885,31.7H38.729ZM71,381.99H59.29L48.523,370.57H68.845ZM285.35,353.25H230.113l-3.971-7.73H285.35Zm48-73.207c-.069.073-.134.148-.2.225l-35.8,42.744v-61.77l13.887-2.681a6,6,0,1,0-2.275-11.782l-11.612,2.242V215.784l43.3-8.352a6,6,0,0,0,4.863-5.892V185.91a6,6,0,0,0-5.445-5.974l-48.16-4.48a6,6,0,0,0-6.555,5.974V333.52H270.2V314.685a6,6,0,0,0-12,0V333.52H219.977l-12.81-24.933c-12.735-24.777-43.688-33.608-75.326-21.456L61.806,314.87H44.7L34.939,268.5c14.777-7.3,41.588-20.381,56.432-27.066a27.7,27.7,0,1,0,52.29-13.93c4.1-.684,8.213-1.3,12.31-1.828l7.12-.91a6,6,0,0,0,4.719-3.509L191.46,168.2a15.3,15.3,0,0,1,15.641-9l22.312,2.392h0l31.108,3.335A6,6,0,0,0,261.806,153l-25.776-2.763v-40.6L263.691,112a6,6,0,0,0,6.509-5.978V93.892l81.61,10.139v58.621l-69.093-7.408a6,6,0,1,0-1.279,11.932l70.372,7.545V258Zm-36-76.481V188.014l36.16,3.364v5.209ZM449.68,340.473,436.3,311.656A58.083,58.083,0,0,0,383.78,278.12H350.611l10-11.94h89.07Zm25.98-21.663H461.68V266.18h13.98Zm16.66-64.63H458.667L440.1,206.018l52.217,18.056Z"/><path d="M264.755,172.926l-41.49-3.85a5.993,5.993,0,0,0-5.931,3.31l-26.85,54.18a6,6,0,0,0,5.375,8.664,6.1,6.1,0,0,0,1.137-.108l61.2-11.8v33.238l-17.054,3.284a6,6,0,1,0,2.269,11.783l14.785-2.847v24.548a6,6,0,0,0,12,0V178.9A6,6,0,0,0,264.755,172.926Zm-6.555,38.18-51.589,9.942,19.646-39.643,31.943,2.964Z"/><path d="M206.972,349.009l-2.081-5.142a12.62,12.62,0,0,0-6.766-6.9,12.647,12.647,0,0,0-3.728-8.927l-3.906-3.9a12.669,12.669,0,0,0-8.405-3.718,12.7,12.7,0,0,0-6.6-6.4l-5.095-2.148a12.692,12.692,0,0,0-9.656-.1,12.689,12.689,0,0,0-8.939-3.675h-5.54a12.669,12.669,0,0,0-8.556,3.321,12.677,12.677,0,0,0-9.179.139l-5.128,2.079a12.646,12.646,0,0,0-6.905,6.766,12.636,12.636,0,0,0-8.909,3.717l-3.925,3.915a12.669,12.669,0,0,0-3.7,8.4,12.688,12.688,0,0,0-6.392,6.587L91.4,348.137a12.694,12.694,0,0,0-.093,9.664,12.677,12.677,0,0,0-3.669,8.929v5.54a12.686,12.686,0,0,0,3.317,8.561A12.651,12.651,0,0,0,91.1,390l2.08,5.129a12.64,12.64,0,0,0,6.761,6.9,12.677,12.677,0,0,0,3.717,8.917l3.919,3.919a12.672,12.672,0,0,0,8.4,3.706,12.68,12.68,0,0,0,6.582,6.387l5.106,2.162a12.7,12.7,0,0,0,9.66.1,12.674,12.674,0,0,0,8.934,3.676h5.54a12.678,12.678,0,0,0,8.557-3.317,12.616,12.616,0,0,0,9.178-.143l5.128-2.079a12.69,12.69,0,0,0,6.907-6.766,12.608,12.608,0,0,0,8.912-3.722l3.921-3.921a12.662,12.662,0,0,0,3.7-8.395,12.67,12.67,0,0,0,6.391-6.581l2.158-5.105a12.621,12.621,0,0,0,.1-9.658,12.689,12.689,0,0,0,3.679-8.943v-5.54a12.664,12.664,0,0,0-3.327-8.561A12.687,12.687,0,0,0,206.972,349.009ZM198.43,372.27a.749.749,0,0,1-.73.73h-1.85a6,6,0,0,0-2.341,11.525l1.707.723a.717.717,0,0,1,.384.4.706.706,0,0,1,0,.546l-2.159,5.107a.757.757,0,0,1-.967.38,6,6,0,0,0-6.558,9.774.736.736,0,0,1,0,1.012l-3.929,3.928a.692.692,0,0,1-.5.2h0a.715.715,0,0,1-.516-.209l-1.3-1.3a6,6,0,0,0-9.8,6.491l.694,1.716a.748.748,0,0,1-.405.947l-5.134,2.081a.736.736,0,0,1-.932-.39,6,6,0,0,0-11.559,2.241.759.759,0,0,1-.73.728h-5.54a.744.744,0,0,1-.72-.73v-1.84a6,6,0,0,0-11.525-2.339l-.719,1.7a.753.753,0,0,1-.956.385l-5.1-2.16a.749.749,0,0,1-.387-.954,6,6,0,0,0-9.767-6.572.745.745,0,0,1-1.024,0l-3.919-3.92a.743.743,0,0,1-.015-1.009l1.31-1.3a6,6,0,0,0-6.473-9.822l-1.719.693a.709.709,0,0,1-.551-.011.717.717,0,0,1-.394-.392l-2.083-5.136a.744.744,0,0,1,.4-.94A6,6,0,0,0,100.355,373a.743.743,0,0,1-.715-.73v-5.54a.739.739,0,0,1,.72-.72h1.85a6,6,0,0,0,2.339-11.526l-1.705-.721a.751.751,0,0,1-.39-.953l2.16-5.1a.758.758,0,0,1,.948-.391,6,6,0,0,0,6.586-9.756.75.75,0,0,1-.01-1.026l3.924-3.915a.719.719,0,0,1,.517-.208h0a.717.717,0,0,1,.523.223l1.309,1.3a6,6,0,0,0,9.781-6.529l-.692-1.693a.7.7,0,0,1,.011-.55.718.718,0,0,1,.393-.4l5.128-2.079a.742.742,0,0,1,.954.4,6,6,0,0,0,11.553-2.257.743.743,0,0,1,.72-.726h5.54a.749.749,0,0,1,.73.73v1.84a6,6,0,0,0,11.526,2.339l.721-1.7a.732.732,0,0,1,.952-.376l5.091,2.146a.756.756,0,0,1,.389.949,6,6,0,0,0,9.758,6.585.746.746,0,0,1,1.036.009l3.915,3.905a.737.737,0,0,1-.017,1.041l-1.3,1.31a6,6,0,0,0,6.516,9.785l1.7-.688a.731.731,0,0,1,.568.011.7.7,0,0,1,.389.379l2.077,5.133a.756.756,0,0,1-.405.955A6,6,0,0,0,197.7,366.01a.744.744,0,0,1,.727.72Z"/><path d="M149.03,337.5a32,32,0,1,0,32,32A32.037,32.037,0,0,0,149.03,337.5Zm0,52a20,20,0,1,1,20-20A20.023,20.023,0,0,1,149.03,389.5Z"/><path d="M427.432,349.009l-2.081-5.142a12.622,12.622,0,0,0-6.764-6.9,12.732,12.732,0,0,0-3.72-8.926l-3.906-3.9a12.667,12.667,0,0,0-8.405-3.718,12.7,12.7,0,0,0-6.595-6.4l-5.1-2.148a12.706,12.706,0,0,0-9.663-.1,12.671,12.671,0,0,0-8.931-3.674h-5.54a12.68,12.68,0,0,0-8.555,3.314,12.676,12.676,0,0,0-9.18.146l-5.129,2.079a12.642,12.642,0,0,0-6.9,6.766,12.6,12.6,0,0,0-8.91,3.717l-3.925,3.915a12.681,12.681,0,0,0-3.706,8.4,12.684,12.684,0,0,0-6.388,6.583l-2.161,5.1a12.644,12.644,0,0,0-.094,9.658,12.68,12.68,0,0,0-3.679,8.937v5.54a12.683,12.683,0,0,0,3.319,8.561A12.646,12.646,0,0,0,311.56,390l2.08,5.129a12.637,12.637,0,0,0,6.765,6.9,12.606,12.606,0,0,0,3.723,8.917l3.92,3.92a12.678,12.678,0,0,0,8.4,3.708,12.667,12.667,0,0,0,6.584,6.384l5.1,2.16a12.678,12.678,0,0,0,9.661.1,12.689,12.689,0,0,0,8.939,3.675h5.54a12.67,12.67,0,0,0,8.555-3.32,12.685,12.685,0,0,0,9.18-.14l5.128-2.079a12.646,12.646,0,0,0,6.905-6.766,12.64,12.64,0,0,0,8.914-3.722l3.92-3.92a12.665,12.665,0,0,0,3.7-8.4,12.69,12.69,0,0,0,6.395-6.591l2.137-5.082a12.6,12.6,0,0,0,.11-9.675,12.693,12.693,0,0,0,3.672-8.939v-5.54a12.662,12.662,0,0,0-3.319-8.552A12.65,12.65,0,0,0,427.432,349.009ZM418.89,372.27a.744.744,0,0,1-.72.73h-1.85a6,6,0,0,0-2.342,11.524l1.707.724a.731.731,0,0,1,.375.956l-2.144,5.095a.756.756,0,0,1-.965.385,6,6,0,0,0-6.561,9.771.736.736,0,0,1,0,1.012l-3.92,3.92a.717.717,0,0,1-.517.208h0a.717.717,0,0,1-.524-.225l-1.311-1.3a6,6,0,0,0-9.778,6.534l.692,1.69a.745.745,0,0,1-.4.946l-5.129,2.079a.754.754,0,0,1-.953-.4,6,6,0,0,0-11.553,2.257.744.744,0,0,1-.72.726h-5.54a.75.75,0,0,1-.73-.73v-1.84a6,6,0,0,0-11.525-2.339l-.719,1.7a.753.753,0,0,1-.946.385l-5.106-2.162a.748.748,0,0,1-.385-.966,6,6,0,0,0-9.781-6.55.731.731,0,0,1-1.006-.01l-3.928-3.928a.694.694,0,0,1-.2-.5.716.716,0,0,1,.208-.517l1.3-1.3a6,6,0,0,0-6.488-9.806l-1.725.7a.7.7,0,0,1-.542-.015.716.716,0,0,1-.4-.391l-2.082-5.135a.742.742,0,0,1,.4-.938A6,6,0,0,0,320.825,373a.748.748,0,0,1-.725-.73v-5.54a.744.744,0,0,1,.73-.72h1.84a6,6,0,0,0,2.352-11.52l-1.707-.727a.75.75,0,0,1-.389-.953l2.158-5.1a.751.751,0,0,1,.956-.388,6,6,0,0,0,6.571-9.768.742.742,0,0,1,0-1.017l3.934-3.923a.691.691,0,0,1,.5-.2h0a.716.716,0,0,1,.516.207l1.3,1.3a6,6,0,0,0,9.808-6.486l-.693-1.72a.71.71,0,0,1,.011-.55.718.718,0,0,1,.393-.4l5.134-2.081a.735.735,0,0,1,.932.39A6,6,0,0,0,366,320.836a.759.759,0,0,1,.73-.726h5.54a.744.744,0,0,1,.72.73v1.84a6,6,0,0,0,11.526,2.339l.721-1.7a.747.747,0,0,1,.962-.376l5.091,2.146a.745.745,0,0,1,.389.949,6,6,0,0,0,9.757,6.585.747.747,0,0,1,1.037.009l3.906,3.9a.75.75,0,0,1,.008,1.033l-1.31,1.31a6,6,0,0,0,6.488,9.806l1.719-.694a.715.715,0,0,1,.558.01.7.7,0,0,1,.386.381l2.083,5.147a.742.742,0,0,1-.4.939,6,6,0,0,0,2.257,11.553.744.744,0,0,1,.727.72Z"/><path d="M369.5,337.5a32,32,0,1,0,32,32A32.036,32.036,0,0,0,369.5,337.5Zm0,52a20,20,0,1,1,20-20A20.023,20.023,0,0,1,369.5,389.5Z"/><text x="0" y="527" fill="#000000" font-size="5px" font-weight="bold" font-family="'Helvetica Neue', Helvetica, Arial-Unicode, Arial, Sans-serif">Created by Icongeek26</text><text x="0" y="532" fill="#000000" font-size="5px" font-weight="bold" font-family="'Helvetica Neue', Helvetica, Arial-Unicode, Arial, Sans-serif">from the Noun Project</text></svg>