<svg xmlns="http://www.w3.org/2000/svg" data-name="Layer 1" viewBox="0 0 100 125" x="0px" y="0px"><title>ritual star</title><path d="M50,15.05A35,35,0,1,0,85,50,35,35,0,0,0,50,15.05ZM79.38,37.43H59.9L52.05,18.12A32,32,0,0,1,79.38,37.43ZM37.12,53l10.06,6.95L30.37,69.41Zm-1.35-4.58-11.55-8H39.05Zm2.52,1.74,4-9.72H57.88l3.92,9.65L50,58.24ZM63,52.93l6.7,16.49L52.82,59.93Zm-1.83-12.5H75.75l-11.42,7.9Zm-11-19.07,6.53,16.07H43.52Zm-1.9-3.26L40.28,37.43H20.62A32,32,0,0,1,48.23,18.1ZM18.05,50a31.75,31.75,0,0,1,1.37-9.25L34.6,51.24,26.3,71.41A31.79,31.79,0,0,1,18.05,50ZM50,82A31.78,31.78,0,0,1,28.71,73.8L50,61.78l21.29,12A31.78,31.78,0,0,1,50,82ZM73.7,71.4,65.48,51.18l15.1-10.45A31.93,31.93,0,0,1,73.7,71.4Z"/><text x="0" y="115" fill="#000000" font-size="5px" font-weight="bold" font-family="'Helvetica Neue', Helvetica, Arial-Unicode, Arial, Sans-serif">Created by Creatih</text><text x="0" y="120" fill="#000000" font-size="5px" font-weight="bold" font-family="'Helvetica Neue', Helvetica, Arial-Unicode, Arial, Sans-serif">from the Noun Project</text></svg>