<svg xmlns="http://www.w3.org/2000/svg" xmlns:xlink="http://www.w3.org/1999/xlink" xml:space="preserve" version="1.1" style="shape-rendering:geometricPrecision;text-rendering:geometricPrecision;image-rendering:optimizeQuality;" viewBox="0 0 1707 2133.75" x="0px" y="0px" fill-rule="evenodd" clip-rule="evenodd"><defs><style type="text/css">
   
    .fil0 {fill:black}
   
  </style></defs><g><path class="fil0" d="M151 729c-130,-21 -134,-70 -134,-190l0 -9c0,-125 4,-153 133,-182l11 47c-96,22 -96,22 -96,135l0 9c0,110 0,126 94,142l-8 48z"/><path class="fil0" d="M851 828l-642 0c-43,0 -79,-36 -79,-79l0 -422c0,-44 35,-79 79,-79l1414 0c28,0 59,15 74,38 11,16 12,34 5,51 -4,8 -9,21 -15,37 -61,149 -104,229 -152,229l-541 0 -119 214c-7,7 -14,11 -24,11zm-642 -531c-18,0 -30,12 -30,30l0 422c0,16 14,30 30,30l628 0 120 -213c4,-9 12,-13 20,-13l555 0c19,-5 55,-72 107,-198 7,-17 12,-31 16,-39 0,0 0,-1 -1,-4 -6,-8 -21,-15 -32,-15l-1413 0z"/><path class="fil0" d="M923 1048l-368 0c-14,0 -25,-11 -25,-25 0,-14 11,-25 25,-25l353 0 92 -209c4,-8 12,-15 22,-15l292 0 76 -206c5,-12 19,-19 32,-13 13,4 20,18 14,31l-83 221c-4,10 -12,15 -22,15l-294 0 -92 211c-4,10 -12,15 -22,15z"/><path class="fil0" d="M463 1550l-410 0c-29,0 -53,-24 -53,-53l0 -165c0,-29 24,-52 53,-52l409 0c29,0 52,23 52,52l0 167c2,29 -22,51 -51,51zm-410 -223c-3,0 -4,3 -4,4l0 166c0,2 1,4 4,4l409 0c2,0 4,-2 4,-4l0 -165c0,-2 -3,-4 -4,-4l-409 0 0 -1z"/><path class="fil0" d="M438 1327c-3,0 -7,0 -10,-2 -12,-5 -18,-19 -12,-32l209 -499c6,-12 20,-18 32,-12 13,5 18,19 13,32l-210 499c-4,8 -14,14 -22,14z"/><path class="fil0" d="M91 1327c-2,0 -6,0 -9,-2 -13,-5 -18,-19 -13,-32l210 -499c5,-12 19,-18 32,-12 12,5 18,19 12,32l-209 499c-3,8 -13,14 -23,14z"/><path class="fil0" d="M207 1327c-3,0 -6,0 -9,-2 -12,-5 -18,-19 -14,-32l70 -177c4,-10 12,-15 22,-15l80 0 77 -183c4,-10 12,-15 22,-15l140 0c14,0 25,11 25,25 0,13 -11,24 -25,24l-125 0 -76 183c-4,10 -13,16 -22,16l-79 0 -64 162c-4,8 -13,14 -22,14z"/><path class="fil0" d="M765 520l-610 0c-14,0 -25,-11 -25,-25 0,-14 11,-25 25,-25l596 0 53 -91c4,-7 13,-13 21,-13l663 0c13,0 24,11 24,25 0,14 -11,25 -24,25l-649 0 -53 91c-4,7 -12,13 -21,13z"/><path class="fil0" d="M598 668l-443 0c-14,0 -25,-11 -25,-25 0,-14 11,-25 25,-25l443 0c13,0 24,11 24,25 0,14 -12,25 -24,25z"/><path class="fil0" d="M406 297c-14,0 -25,-11 -25,-25l0 -90c0,-14 11,-25 25,-25l255 0c7,0 13,2 17,7l93 91c10,10 10,25 0,35 -10,9 -25,9 -35,0l-86 -85 -219 0 0 68c0,13 -11,24 -25,24z"/><path class="fil0" d="M1160 297c-13,0 -25,-11 -25,-25l0 -60 -84 0 0 60c0,14 -11,25 -25,25 -14,0 -25,-11 -25,-25l0 -83c0,-14 11,-25 25,-25l133 0c14,0 25,11 25,25l0 83c0,14 -11,25 -24,25z"/><path class="fil0" d="M751 962l-160 0c-14,0 -25,-11 -25,-25 0,-14 11,-25 25,-25l141 0 30 -116c5,-13 17,-21 30,-17 12,4 20,17 16,29l-33 136c-4,10 -13,18 -24,18z"/><path class="fil0" d="M665 738c-51,0 -92,-42 -92,-95 0,-52 41,-94 92,-94 52,0 95,42 95,94 0,53 -42,95 -95,95zm0 -139c-23,0 -44,21 -44,46 0,25 19,45 44,45 25,0 46,-19 46,-45 0,-27 -19,-46 -46,-46z"/></g><text x="0" y="1722" fill="#000000" font-size="5px" font-weight="bold" font-family="'Helvetica Neue', Helvetica, Arial-Unicode, Arial, Sans-serif">Created by Muhammad Shabraiz</text><text x="0" y="1727" fill="#000000" font-size="5px" font-weight="bold" font-family="'Helvetica Neue', Helvetica, Arial-Unicode, Arial, Sans-serif">from the Noun Project</text></svg>